<?xml version="1.0" encoding="utf-8"?>
<!-- Generator: Adobe Illustrator 19.2.1, SVG Export Plug-In . SVG Version: 6.00 Build 0)  -->
<svg version="1.1" id="Layer_1" xmlns="http://www.w3.org/2000/svg" xmlns:xlink="http://www.w3.org/1999/xlink" x="0px" y="0px"
	 viewBox="0 0 841.9 595.3" style="enable-background:new 0 0 841.9 595.3;" xml:space="preserve">
<style type="text/css">
	.st0{fill:none;stroke:#444444;stroke-width:18.75;stroke-miterlimit:10;}
	.st1{fill:none;stroke:#444444;stroke-width:18.75;stroke-linecap:square;stroke-miterlimit:10;}
</style>
<g transform="translate(0, 0)">
	<line class="st0" x1="469.3" y1="150.7" x2="568.9" y2="250.3"/>
	<path class="st0" d="M430.2,172.3c-48.9-21.1-107.9-11.6-147.8,28.3c-8.2,8.2-15,17.3-20.6,26.8l57.4,57.4"/>
	<path class="st0" d="M547.3,289c21.5,49.1,12.2,108.4-28,148.6c-8.2,8.2-17.3,15-26.8,20.6l-57.7-57.7"/>
	<path class="st1" d="M389,425.7L294.3,331c0,0,80.9-201.4,308-213.2C589.4,343.8,389,425.7,389,425.7z"/>
	
		<ellipse transform="matrix(0.7071 -0.7071 0.7071 0.7071 -60.8616 396.5542)" class="st1" cx="448.3" cy="271.7" rx="33.5" ry="33.5"/>
	<path class="st1" d="M239.8,442.8c0-20.7,16.8-37.5,37.5-37.5s37.5,16.8,37.5,37.5s-16.8,37.5-37.5,37.5c-6.8,0-37.5,0-37.5,0
		S239.8,456.6,239.8,442.8z"/>
</g>
</svg>
